<svg xmlns="http://www.w3.org/2000/svg" width="235" height="548" viewBox="0 0 773770 1801610" shape-rendering="geometricPrecision" text-rendering="geometricPrecision" image-rendering="optimizeQuality" fill-rule="evenodd" clip-rule="evenodd"><defs><style>.fil2{fill:#fff}.fil0,.fil1{fill-rule:nonzero}.fil1{fill:#bbdcf0}.fil0{fill:#ededed}</style></defs><g id="Слой_x0020_1"><path class="fil0" d="M761500 829960v954920l10750 6420 1520 10310V821990l-1040 1370-11230 6600zM0 1277900v52240l12260 7320v-66770L0 1277900zm34610-20360v93270l12270 7320v-107800l-12270 7210zm34620-20360v134300l12260 7320v-148830l-12260 7210zm34610-20360v175330l12270 7320v-189860l-12270 7210zm34610-20360v216360l12270 7320v-230900l-12270 7220zm34620-20360v257390l12260 7320v-271930l-12260 7220zm34610-20360v298420l12270 7320v-312960l-12270 7220zm34620-20360v339450l12260 7320v-353990l-12260 7220zm34610-20360v380480l12270 7320v-395020l-12270 7220zm34610-20370v421520l12270 7320v-436050l-12270 7210zm34620-20360v462550l12260 7320v-477080l-12260 7210zm34610-20360v503580l12270 7320v-518110l-12270 7210zm34610-20360v544610l12270 7320v-559140l-12270 7210zm34620-20360v585640l12260 7320v-600170l-12260 7210zm34610-20360v626670l12270 7320V985640l-12270 7210zm34620-20360v667700l12260 7320V965270l-12260 7220zm34610-20360v708730l12270 7330V944910l-12270 7220zm34610-20360v749760l12270 7330V924550l-12270 7220zm34620-20360v790790l12260 7330V904190l-12260 7220zm34610-20370v831830l12270 7330V883830l-12270 7210zm34610-20360v872860l12270 7330V863470l-12270 7210zm34620-20360v913890l12260 7330V843110l-12260 7210z"/><path class="fil1" d="M125160 253430l478210 282560c-160970 88980-321950 177960-482940 266920l-2310-553640 7040 4160zm459470 282290L127470 265600l2180 521580 454980-251460z"/><path class="fil2" d="M568820 0L297050 160580l270480 149490z"/></g></svg>