<svg xmlns="http://www.w3.org/2000/svg" width="285" height="493" viewBox="0 0 681500 1177570" shape-rendering="geometricPrecision" text-rendering="geometricPrecision" image-rendering="optimizeQuality" fill-rule="evenodd" clip-rule="evenodd"><defs><style>.fil0,.fil1{fill-rule:nonzero}.fil1{fill:#5cc215}.fil0{fill:#ededed}</style></defs><g id="Слой_x0020_1"><path class="fil0" d="M13120 6990v838150l-9430 5630-1330 9040V0l900 1200 9860 5790zm668380 393170v45840l-10770 6430v-58610l10770 6340zm-30380-17870v81850l-10770 6430v-94620l10770 6340zm-30380-17870v117870l-10770 6420V358080l10770 6340zm-30390-17880v153890l-10760 6430V340210l10760 6330zm-30380-17870v189900l-10760 6430V322340l10760 6330zm-30380-17870v225910l-10760 6430V304470l10760 6330zm-30380-17870v261930l-10760 6420V286600l10760 6330zm-30380-17870v297940l-10760 6430V268730l10760 6330zm-30380-17870v333950l-10760 6430V250860l10760 6330zm-30380-17870v369960l-10770 6430V232990l10770 6330zm-30380-17870v405980l-10770 6420V215110l10770 6340zm-30380-17870v441990l-10770 6430V197240l10770 6340zm-30380-17870v478000l-10770 6430V179370l10770 6340zm-30380-17880v514020l-10770 6430V161500l10770 6330zm-30380-17870v550040l-10770 6420V143630l10770 6330zm-30380-17870v586050l-10770 6430V125760l10770 6330zm-30390-17870v622060l-10760 6430V107890l10760 6330zm-30380-17870v658070l-10760 6430V90020l10760 6330zm-30380-17870v694090l-10760 6420V72150l10760 6330zm-30380-17870v730100l-10760 6430V54280l10760 6330zM73880 42740v766110l-10760 6430V36400l10760 6340zM43500 24870v802120l-10760 6430V18530l10760 6340z"/><path class="fil1" d="M345900 787040L13620 983370l330700 182780 1580-379110zM5090 980560l347610-205390-1680 402400C234010 1112910 117000 1048240 0 983570l5090-3010z"/></g></svg>